<svg xmlns="http://www.w3.org/2000/svg" width="336.435" height="240.725" viewBox="0 0 336.435 240.725">
  <path id="Path_48" data-name="Path 48" d="M474.37,649.181c-6.629-.02-12.793-2.206-16.39-5.811s-4.137-8.143-1.438-12.063l22.58-32.619c-35.974-20.6-56.536-50.222-56.451-81.318,0-60.055,75.461-108.915,168.217-108.915s168.217,48.86,168.217,108.915S683.644,626.286,590.888,626.286a252.829,252.829,0,0,1-47.905-4.569l-57.628,25.26a27.587,27.587,0,0,1-10.985,2.2ZM590.888,423.653c-61.529-.023-116.348,25.157-136.646,62.765s-1.633,79.414,46.526,104.209l7.113,3.673-24.3,35.1,55.754-24.439,5.505,1.2c54.345,11.821,114.344,1.754,152.983-25.668s48.631-67.028,25.477-100.985-75.087-55.862-132.417-55.852Z" transform="translate(-422.671 -408.456)" fill="#3f3d56" opacity="0.4"/>
</svg>
