<svg xmlns="http://www.w3.org/2000/svg" xmlns:xlink="http://www.w3.org/1999/xlink" width="158.471" height="439.606" viewBox="0 0 158.471 439.606">
  <defs>
    <style>
      .cls-1 {
        fill: url(#linear-gradient);
      }

      .cls-2 {
        fill: #a1616a;
      }

      .cls-3 {
        fill: #2f2e41;
      }

      .cls-4 {
        fill: #303d5c;
      }

      .cls-5 {
        opacity: 0.1;
      }

      .cls-6 {
        fill: #e1e7ef;
      }

      .cls-7 {
        fill: #67647e;
      }

      .cls-8 {
        opacity: 0.03;
      }
    </style>
    <linearGradient id="linear-gradient" x1="9.832" y1="1" x2="9.832" gradientUnits="objectBoundingBox">
      <stop offset="0" stop-color="gray" stop-opacity="0.251"/>
      <stop offset="0.54" stop-color="gray" stop-opacity="0.122"/>
      <stop offset="1" stop-color="gray" stop-opacity="0.102"/>
    </linearGradient>
  </defs>
  <g id="Man" transform="translate(-404.218 -617.815)">
    <g id="undraw_3d_modeling_h60h" transform="translate(401.956 557.275)">
      <path id="Path_36" data-name="Path 36" class="cls-1" d="M369.036,418.869c-1.7-10.814-12.025-36.027-12.025-36.027h0c-.182-.759-.384-1.5-.617-2.24-7.333-23.964-17.487-26.088-17.487-26.088l-36.349-7.363a2.722,2.722,0,0,1,.748.692,1.545,1.545,0,0,0-.577.077,13.254,13.254,0,0,1-3.186-6.546c-.071-.356-.132-.731-.182-1.105a23.666,23.666,0,0,0,7.68-18.713,23.952,23.952,0,0,0-9.763-17.814c-.374-.279-.759-.558-1.163-.817,1.719-1.73,1.77-4.143.5-6.546-2.872-5.662-9.1-9.238-15.494-10.977-4.9-1.336-10.2-1.769-15.049-.308a56.264,56.264,0,0,0-7.869,3.47c-4.834,2.3-10.114,4.1-13.785,7.873a3.81,3.81,0,0,0-1.375,3.163,8.442,8.442,0,0,0,1.365,2.3,6.8,6.8,0,0,1,.071,5.767,57.946,57.946,0,0,0-2.245,5.537c-.5,1.922-.3,4.181,1.214,5.556a26.342,26.342,0,0,0,2.276,1.528,11.752,11.752,0,0,1,2.164,2.307l4.308,5.527a56.531,56.531,0,0,1,5.381,7.8,37.257,37.257,0,0,0,3.338,5.94,8.863,8.863,0,0,0,1.436,1.423l-.425-.154a6.715,6.715,0,0,0,4.814,1.759h.223a1.341,1.341,0,0,0,.87-.336v.759a80.808,80.808,0,0,1-.132,8.132l-.334-.163a3.047,3.047,0,0,0-3.135.317L230.74,379.112s-7.282,9.468-6.26,25.79l-5.866,24.492s-7.343,20.782-1.7,35.633,8.91,23.32,8.91,23.32,2.266,16.86,5.644,18.264,4.855,2.124,4.855,2.124l.678,4.028h0s.223.394.617,1.057c2.468,4.076,11.6,18.456,16.91,16.918a62.187,62.187,0,0,1,.86,11.823l5.249,33.5s3.661,9.122,3.439,13.89,4.288,11.535,4.288,11.535a21.146,21.146,0,0,0-2.255,15.591c2.144,8.9,4.855,50.042,4.855,50.042l3.944,9.968-.081,11.6a10.959,10.959,0,0,1-2.427,5.181c-2.539,2.615-2.367,5.642-8.465,9.218s-9.982,4.931-9.982,9.7a11.834,11.834,0,0,1-.182,1.922c-.566,3.489-1.669,5.364,9.578,6.383a30.585,30.585,0,0,0,22-7s1.952-3.345,11.125-4.691c0,0,3.125-.163,3.3-2.788.061-.9.051-2.643,0-4.547-.152-3.643-.516-7.882-1.011-8.094s-1.679-3.922-2.023-5.248h2.539s2.377-16.86,0-27.78-.223-18.658-.223-18.658l-.455-28.837s-3.155-3.182-.678-8.8,0-33.394,0-33.394.91-9.968,3.5-12.3.131-14.6,0-15.236l4.622,14.707s2.023,29.27,6.321,34.6l1.234,13.246s8.8,12.2,7.08,18.773,1.81,30.327,1.81,30.327v24.281s-3.955,9.747,1.578,13.246l2.377-.087c-.809.692-1.386,1.74-2.3,2.634-1.062,1.038-1.659,4.97-2.023,8.353-.283,2.884-.374,5.325-.374,5.325a9.376,9.376,0,0,0,6.776,3.845c4.4.24,18.953,10.814,18.953,10.814s14.392,0,18.114-.711h.212a4.88,4.88,0,0,0,2.812-2.182,5.284,5.284,0,0,0,.678-4.008c-.455-2.1-2.2-4.383-6.068-6.335-9.659-4.806-11.125-9.372-11.125-9.372l-6.311-9.007h.9s-.566-9.535,6.311-20.253l-.445-47.245s2.822-16.226-2.023-24.992c0,0-.394-9.334,2.842-12.189s-4.309-31.817-4.309-31.817-1.547-15.534-3.408-29.712h0c7.616,6.863,15.525-17.86,16.85-22.243h.192a.887.887,0,0,0-.091-.327l.091-.317h0s-1.689-5.719-.455-4.556,4.288-3.182,4.288-3.182-.445-23.647,4.855-35.566S369.036,418.869,369.036,418.869ZM346.35,433.961V433.9c.789,14.419-.152,45.246-.152,45.246s-1.011,3.941-2.164,8.594l-.8-29.27h0l-.759-27.568Zm-97.093-9.949s3.833,45.592,0,52.167c-1.092,1.865-2.023,5.2-2.771,9.007-1.264-3.163-3.944-10.574-3.034-14.524,1.234-5.085-2.488-18.446-2.488-18.763s-.334-7.421,2.377-12.881.9-7.8.9-7.8,2.265-8.959,4.976-7.257Z" transform="translate(-212.52 -223.64)"/>
      <path id="Path_37" data-name="Path 37" class="cls-2" d="M258.06,536.41c-3.3,14.53-16.44-7.43-19.43-12.7l-.61-1.09,1.43-6.68,7.53-3.07a21,21,0,0,1,3.37,2.19C254.47,518.28,260.61,525.17,258.06,536.41Z" transform="translate(-212.191 -234.114)"/>
      <path id="Path_38" data-name="Path 38" class="cls-2" d="M360,512.65a1.018,1.018,0,0,1-.08.32l-.11.36c-1.28,4.53-8.95,30.06-16.34,23-8.1-7.77-4.16-25.63-4.16-25.63h.05l17-1.74,3.37,3.46h0Z" transform="translate(-210.737 -233.976)"/>
      <path id="Path_39" data-name="Path 39" class="cls-3" d="M350.14,638.24l.43,48.71c-6.67,11.07-6.12,20.92-6.12,20.92l-22,.87c-5.37-3.61-1.53-13.68-1.53-13.68V670s-3.4-24.52-1.76-31.31-6.89-19.38-6.89-19.38l-1.21-13.68c-4.16-5.48-6.13-35.7-6.13-35.7l-4.48-15.19c.12.66,2.44,13.39,0,15.74s-3.39,12.7-3.39,12.7,2.41,28.69,0,34.49.65,9.09.65,9.09l.44,29.78s-2.08,8,.22,19.26,0,28.69,0,28.69H274.7l.11-12.15L271,682s-2.63-42.48-4.71-51.68a23.06,23.06,0,0,1,2.19-16.09s-4.38-7-4.16-11.94S261,588,261,588l-5.09-34.6a67,67,0,0,0-2.52-19.71c-3-9.85-7.33-22.77-7.33-22.77l4.94.44,25,2.22s60.65-4.08,63.37-.69a11.18,11.18,0,0,1,1.14,3.53c2.72,12.24,6.32,50.56,6.32,50.56s7.34,29.89,4.19,32.85-2.76,12.58-2.76,12.58C352.87,621.48,350.14,638.24,350.14,638.24Z" transform="translate(-210.737 -241.365)"/>
      <path id="Path_40" data-name="Path 40" class="cls-4" d="M298.87,723c-.17,2.71-3.2,2.87-3.2,2.87-8.87,1.4-10.76,4.85-10.76,4.85a28.55,28.55,0,0,1-21.35,7.23c-10.91-1-9.84-3-9.29-6.6a12.669,12.669,0,0,0,.18-2c0-4.93,3.77-6.32,9.69-10s5.74-6.82,8.21-9.52,2.71-8,2.71-8c2.79-4.85,9.85.73,9.85.73.33,1.72,10.84,1.48,10.84,1.48s1.4,5.58,2.11,5.91c.48.22.83,4.6,1,8.36C298.91,720.22,298.93,722,298.87,723Z" transform="translate(-211.872 -241.365)"/>
      <path id="Path_41" data-name="Path 41" class="cls-5" d="M298.87,723c-.17,2.71-3.2,2.87-3.2,2.87-8.87,1.4-10.76,4.85-10.76,4.85a28.55,28.55,0,0,1-21.35,7.23c-10.91-1-9.84-3-9.29-6.6,4.87,1.21,14.2,2.9,19.63-.06,7.56-4.1,13-7,13-7l11.95-6C298.91,720.22,298.93,722,298.87,723Z" transform="translate(-211.872 -241.365)"/>
      <path id="Path_42" data-name="Path 42" class="cls-4" d="M365.7,737.56a4.78,4.78,0,0,1-2.73,2.26h-.21c-3.61.73-17.58.73-17.58.73s-14.12-10.91-18.39-11.16a9,9,0,0,1-6.57-4s.08-2.54.36-5.49c.33-3.5.91-7.56,1.94-8.63,1.89-2,2.3-4.68,6.57-3,0,0,6.07-10.69,13.21-2.43l7.4,11.22s1.39,4.68,10.76,9.69c3.75,2,5.45,4.37,5.89,6.53a5.8,5.8,0,0,1-.65,4.28Z" transform="translate(-210.737 -241.365)"/>
      <path id="Path_43" data-name="Path 43" class="cls-5" d="M365.7,737.56c-.84.71-1.76,1.47-2.73,2.26h-.21c-3.61.73-17.58.73-17.58.73s-14.12-10.91-18.39-11.16a9,9,0,0,1-6.57-4s.08-2.54.36-5.49c4.34,1.3,10.93,3.6,12.7,6.07,2.7,3.77,10.93,9,10.93,9s15.33-1.47,22.14-1.68a5.8,5.8,0,0,1-.65,4.27Z" transform="translate(-210.737 -241.365)"/>
      <path id="Path_44" data-name="Path 44" class="cls-2" d="M306,355.48l-20.21,21.35s-24.47-1.8-20.2-9c2.18-3.68,2.52-11.39,2.33-18.09-.18-6.46-.85-12-.85-12s34.33-17.08,31.7-1.15a26.3,26.3,0,0,0-.1,9.1C300.19,353.73,306,355.48,306,355.48Z" transform="translate(-211.726 -227.636)"/>
      <path id="Path_45" data-name="Path 45" class="cls-5" d="M298.79,336.59a26.3,26.3,0,0,0-.1,9.1c-4.58,4.63-10.94,3.61-18,3.61-4.66,0-9.66.07-13.41-2.14-.18-6.46-.22-9.42-.22-9.42S301.42,320.66,298.79,336.59Z" transform="translate(-211.755 -227.416)"/>
      <path id="Path_46" data-name="Path 46" class="cls-2" d="M306,326.58a25.29,25.29,0,1,1-25.287-25.29A25.3,25.3,0,0,1,306,326.58Z" transform="translate(-211.814 -223.64)"/>
      <path id="Path_47" data-name="Path 47" class="cls-5" d="M340.42,516.4c-6.29,15-46.81,15.3-46.81,15.3V515.36l-2.45-.16c1.06,4.68-1.49,16.09-1.49,16.09-32,4.52-39.82-13.71-39.82-13.71l1.11-6.24,25,2.22s60.65-4.08,63.37-.69a11.18,11.18,0,0,1,1.09,3.53Z" transform="translate(-211.547 -233.896)"/>
      <path id="Path_48" data-name="Path 48" class="cls-6" d="M293.61,529.73V513.39l-2.45-.16c1.06,4.68-1.49,16.09-1.49,16.09-24.1,3.4-34.48-6.09-38.14-11a15.239,15.239,0,0,1-1.68-2.72l9.77-55,2.3-81,3.53-14.2.81-6.82v-.08h.09l2.49,1.07,14.91,6.45,16.94-12.79.24-.19.85-.63,1.4,1.12,3.48,2.79,11.17,72.11s19.37,55.52,23,77.93c.14.89.26,1.72.35,2.51C343.54,529.35,293.61,529.73,293.61,529.73Z" transform="translate(-211.534 -230.348)"/>
      <circle id="Ellipse_5" data-name="Ellipse 5" class="cls-7" cx="1.44" cy="1.44" r="1.44" transform="translate(72.418 137.653)"/>
      <circle id="Ellipse_6" data-name="Ellipse 6" class="cls-7" cx="1.44" cy="1.44" r="1.44" transform="translate(73.086 150.332)"/>
      <circle id="Ellipse_7" data-name="Ellipse 7" class="cls-7" cx="1.44" cy="1.44" r="1.44" transform="translate(74.542 170.869)"/>
      <circle id="Ellipse_8" data-name="Ellipse 8" class="cls-7" cx="1.44" cy="1.44" r="1.44" transform="translate(76.949 192.991)"/>
      <circle id="Ellipse_9" data-name="Ellipse 9" class="cls-7" cx="1.44" cy="1.44" r="1.44" transform="translate(78.406 213.77)"/>
      <circle id="Ellipse_10" data-name="Ellipse 10" class="cls-7" cx="1.44" cy="1.44" r="1.44" transform="translate(79.862 235.892)"/>
      <circle id="Ellipse_11" data-name="Ellipse 11" class="cls-7" cx="1.44" cy="1.44" r="1.44" transform="translate(79.286 257.772)"/>
      <path id="Path_49" data-name="Path 49" class="cls-5" d="M267.22,468.59s-1.61,21.07-4.56,27.2-4.27,23.32-4.27,23.32l-6.86-.78a15.241,15.241,0,0,1-1.68-2.72l9.77-55,2.3-81,3.53-14.2.81-6.82h.1a2.79,2.79,0,0,1,2.44,0l.33.17c-.1.28-.2.57-.28.86-2.68,8.38-3.68,23.82-3.68,23.82s3.84,28.25,4.27,41.39S267.22,468.59,267.22,468.59Z" transform="translate(-212.042 -230.325)"/>
      <path id="Path_50" data-name="Path 50" class="cls-5" d="M250.35,515.06a4.111,4.111,0,0,1-.27.51c-2.66,4.5-9.4,7.36-11.45,8.14l-.61-1.09,1.43-6.68,7.53-3.07A21,21,0,0,1,250.35,515.06Z" transform="translate(-212.21 -233.751)"/>
      <path id="Path_51" data-name="Path 51" class="cls-4" d="M232.11,407.54l-6.24,3.73-5.69,25.29s-7.12,21.46-1.65,36.78,8.65,24.09,8.65,24.09,2.19,17.41,5.48,18.83,4.71,2.19,4.71,2.19l.65,4.16s8.91-3,12.07-8.35-2.32-18.58-2.32-18.58-4.71-11.28-3.51-16.53-2.4-19-2.4-19.38-.33-7.67,2.29-13.3.88-8.05.88-8.05l-1.64-16.1Z" transform="translate(-212.52 -231.732)"/>
      <path id="Path_52" data-name="Path 52" class="cls-5" d="M340.94,511.67s-16.53,6.24-21.79.76-4.71-31.09-4.71-31.09-5-47.3-8.21-55.07-1.53-63.84-1.53-63.84-2.14-7.25-4-9.14a1.771,1.771,0,0,0-.39-.32l.63.13,2.25.49,3.48,2.79,11.17,72.11s19.37,55.52,23,77.93Z" transform="translate(-211.197 -230.076)"/>
      <path id="Path_53" data-name="Path 53" class="cls-5" d="M360,513.31h-.19c-2.07.27-20.45,2.49-20.52-1.34a11.666,11.666,0,0,1,.07-1.32l17-1.74,3.37,3.46h0c.06.22.11.42.16.57Z" transform="translate(-210.737 -233.504)"/>
      <path id="Path_54" data-name="Path 54" class="cls-4" d="M342.37,382.21l12.08,6.3s10,26,11.67,37.21c0,0,7.45,29.91,2.3,42.22s-4.7,36.72-4.7,36.72-3,4.49-4.17,3.28.44,4.71.44,4.71-20.63,2.74-20.72-1.31S344,487.91,344,487.91s1.31-46.1-.55-53.32S342.37,382.21,342.37,382.21Z" transform="translate(-210.737 -230.911)"/>
      <path id="Path_55" data-name="Path 55" class="cls-5" d="M306.34,431.3s-6.78,16.64-9,17.74.43,5.47.43,5.47S310.18,437.21,306.34,431.3Z" transform="translate(-211.511 -231.081)"/>
      <path id="Path_56" data-name="Path 56" class="cls-5" d="M302.29,372.94c.08-.31-8.1,8-10.29,9.27S300,382.14,302.29,372.94Z" transform="translate(-211.568 -228.847)"/>
      <path id="Path_57" data-name="Path 57" class="cls-5" d="M279.52,430s-12.48,8.07-10.84,11.26S279.52,430,279.52,430Z" transform="translate(-211.845 -230.866)"/>
      <path id="Path_58" data-name="Path 58" class="cls-5" d="M302.18,547.8s10.63,6.83,27.16,8.54Z" transform="translate(-211.307 -234.921)"/>
      <path id="Path_59" data-name="Path 59" class="cls-5" d="M276.67,564.22s9.86,12.37,14.35,12.7S276.67,564.22,276.67,564.22Z" transform="translate(-211.725 -235.59)"/>
      <path id="Path_60" data-name="Path 60" class="cls-5" d="M290.47,612.72c-.44.22-5.59,11.17-10.84,11.5S290.47,612.72,290.47,612.72Z" transform="translate(-211.719 -237.259)"/>
      <path id="Path_61" data-name="Path 61" class="cls-5" d="M336.12,636.7s9.77-2.19,11.94,4.82C348.06,641.52,347.4,639.33,336.12,636.7Z" transform="translate(-210.737 -237.908)"/>
      <path id="Path_62" data-name="Path 62" class="cls-5" d="M329.56,676.77s11.82-2.41,14.34.88S329.56,676.77,329.56,676.77Z" transform="translate(-211.074 -241.365)"/>
      <path id="Path_63" data-name="Path 63" class="cls-5" d="M296.09,682.36c0,.11-12,2.41-11.57,3.94s12.85,1.31,13.28-1.1a2.28,2.28,0,0,0-1.71-2.84Z" transform="translate(-211.638 -241.365)"/>
      <path id="Path_64" data-name="Path 64" class="cls-5" d="M325.61,692.76s19.79-2.41,18.54,1.75S325.61,692.76,325.61,692.76Z" transform="translate(-211.083 -241.365)"/>
      <path id="Path_65" data-name="Path 65" class="cls-5" d="M222,449c.11.33,13,2.08,14.78,6.24,0,0-12.7-5.91-14.67-5.91" transform="translate(-212.52 -231.447)"/>
      <path id="Path_66" data-name="Path 66" class="cls-5" d="M240.21,482.87s-10.73,3.39-10,8.54S229.16,489,240.21,482.87Z" transform="translate(-212.52 -232.692)"/>
      <path id="Path_67" data-name="Path 67" class="cls-5" d="M235.21,508.93s3.91-5.37,7.63-4.38S235.21,508.93,235.21,508.93Z" transform="translate(-212.52 -233.335)"/>
      <path id="Path_68" data-name="Path 68" class="cls-5" d="M296.5,306.81a6.17,6.17,0,0,1-1.26.94c-3.11,1.8-3.95,4.58-5.44,7.78-1.36,2.93-2.88,6-5.64,7.7-3.56,2.15-8.26,1.36-12,3.24a9.32,9.32,0,0,0-4.95,9.15,26.476,26.476,0,0,0,1.05,4.19,29.51,29.51,0,0,1,1.13,9.11,1.229,1.229,0,0,1,0,.27,25.29,25.29,0,1,1,27.1-42.38Z" transform="translate(-211.871 -223.64)"/>
      <path id="Path_69" data-name="Path 69" class="cls-3" d="M295.84,299.2c-2.78-5.84-8.82-9.53-15-11.33-4.74-1.38-9.89-1.83-14.6-.32a53.493,53.493,0,0,0-7.63,3.58c-4.69,2.37-9.85,4.25-13.38,8.14a4,4,0,0,0-1.33,3.26,8.529,8.529,0,0,0,1.32,2.37c1,1.78.74,4,.07,6s-1.7,3.73-2.18,5.72-.29,4.31,1.18,5.73a26.64,26.64,0,0,0,2.2,1.58,12,12,0,0,1,2.11,2.38l4.17,5.71a58.666,58.666,0,0,1,5.23,8,39,39,0,0,0,3.24,6.13c1.39,1.85,3.56,3.34,5.87,3.13a1.12,1.12,0,0,0,.92-.44,1.26,1.26,0,0,0,.12-.58,30.07,30.07,0,0,0-1.13-9.1,25.582,25.582,0,0,1-1.06-4.2,9.32,9.32,0,0,1,4.95-9.15c3.72-1.87,8.42-1.08,12-3.23,2.76-1.67,4.28-4.77,5.64-7.7,1.49-3.21,2.32-6,5.44-7.79S297.38,302.27,295.84,299.2Z" transform="translate(-212.005 -223.64)"/>
      <path id="Path_70" data-name="Path 70" class="cls-5" d="M284.51,712.6s3.85,4.93,2.86,7.72S284.51,712.6,284.51,712.6Z" transform="translate(-211.697 -241.365)"/>
      <path id="Path_71" data-name="Path 71" class="cls-5" d="M336.85,724.92s.86-6.61,4.31-6.67,3.61-.35,6.24.65,5.1,2.59,4.32,2.83-4.54-3.78-8.37-1.73a27.8,27.8,0,0,0-6.5,4.92Z" transform="translate(-210.737 -241.365)"/>
      <path id="Path_72" data-name="Path 72" class="cls-5" d="M273,374.33l10.8-7.6s-15.85-9.36-17.74-8.05-3.18,13.15-3.18,13.15Z" transform="translate(-211.869 -228.403)"/>
      <path id="Path_73" data-name="Path 73" class="cls-6" d="M272.92,373.83l10.84-7.76s-15.85-9.36-17.74-8-3.18,13.8-3.18,13.8Z" transform="translate(-211.87 -228.382)"/>
      <path id="Path_74" data-name="Path 74" class="cls-8" d="M272.92,373.83l10.84-7.76s-15.85-9.36-17.74-8-3.18,13.8-3.18,13.8Z" transform="translate(-211.87 -228.382)"/>
      <path id="Path_75" data-name="Path 75" class="cls-4" d="M267.82,358.12l-.33-.17a2.81,2.81,0,0,0-3,.32L232,384.63s-7.06,9.77-6.08,26.64L245,438.42s2.19-9.2,4.82-7.45c0,0,3.72,47.08,0,53.87S244.48,517,244.48,517l12.59,1.42s1.32-17.19,4.27-23.32,4.57-27.19,4.57-27.19,2.66-30.62,2.22-43.76-4.27-41.38-4.27-41.38S264.93,366.24,267.82,358.12Z" transform="translate(-212.52 -230.292)"/>
      <path id="Path_76" data-name="Path 76" class="cls-5" d="M300.19,369.52l-13.51-5s17.2-18.83,19.34-8.38Z" transform="translate(-211.573 -228.213)"/>
      <path id="Path_77" data-name="Path 77" class="cls-6" d="M300.19,368.87l-13.51-5S303.88,345,306,355.48Z" transform="translate(-211.573 -228.189)"/>
      <path id="Path_78" data-name="Path 78" class="cls-8" d="M300.19,368.87l-13.51-5S303.88,345,306,355.48Z" transform="translate(-211.573 -228.189)"/>
      <path id="Path_79" data-name="Path 79" class="cls-5" d="M299.75,352.85a.74.74,0,0,1,.56.12Z" transform="translate(-211.538 -226.132)"/>
      <path id="Path_80" data-name="Path 80" class="cls-4" d="M301.06,351.54l35.83,7.72s9.85,2.19,17,26.93-9.74,55.06-9.74,55.06l-3.73-3.16,1.87,72.26s-16.54,6.24-21.79.77-4.71-31.1-4.71-31.1-5-47.3-8.21-55.07S306,361.12,306,361.12,303.06,351.1,301.06,351.54Z" transform="translate(-210.737 -230.007)"/>
      <path id="Path_81" data-name="Path 81" class="cls-5" d="M333.83,397.58c-.51.47-1.1,22.33,1.09,39a212.244,212.244,0,0,0,6.21,30l-3.25-66.68S335.36,396.16,333.83,397.58Z" transform="translate(-211.095 -230.501)"/>
      <path id="Path_82" data-name="Path 82" class="cls-5" d="M329.45,378.75c.87.55,4.7,9.63,2.95,13.36S329.45,378.75,329.45,378.75Z" transform="translate(-211.18 -229.095)"/>
      <path id="Path_83" data-name="Path 83" class="cls-5" d="M295.63,299.2a19.69,19.69,0,0,0-7.88-8.25,18.77,18.77,0,0,1,5.91,6.94c1.53,3.07,1.09,6.15-1.92,7.89s-3.95,4.58-5.44,7.78c-1.36,2.93-2.87,6-5.64,7.7-3.56,2.15-8.26,1.36-12,3.23a9.34,9.34,0,0,0-4.95,9.16,26.759,26.759,0,0,0,1.05,4.19,29.51,29.51,0,0,1,1.13,9.11,1.14,1.14,0,0,1-.12.58,1.11,1.11,0,0,1-.92.44,5.45,5.45,0,0,1-2.7-.5,6.27,6.27,0,0,0,4.67,1.81.9.9,0,0,0,1-1,29.749,29.749,0,0,0-1.12-9.1,25.582,25.582,0,0,1-1.06-4.2,9.32,9.32,0,0,1,5-9.15c3.71-1.87,8.41-1.08,12-3.23,2.77-1.67,4.28-4.77,5.64-7.7,1.5-3.21,2.33-6,5.44-7.79S297.16,302.27,295.63,299.2Z" transform="translate(-211.81 -223.64)"/>
    </g>
  </g>
</svg>
